<?xml version="1.0" standalone="no"?>
<!DOCTYPE svg PUBLIC "-//W3C//DTD SVG 20010904//EN"
 "http://www.w3.org/TR/2001/REC-SVG-20010904/DTD/svg10.dtd">
<svg version="1.0" xmlns="http://www.w3.org/2000/svg"
 width="700.000000pt" height="700.000000pt" viewBox="0 0 700.000000 700.000000"
 preserveAspectRatio="xMidYMid meet">
<metadata>
Created by potrace 1.14, written by Peter Selinger 2001-2017
</metadata>
<g transform="translate(0.000000,700.000000) scale(0.100000,-0.100000)"
fill="#000000" stroke="none">
<path d="M63 6980 c-68 -41 -63 123 -61 -1994 3 -1897 3 -1914 23 -1936 48
-53 -36 -50 1524 -50 l1451 0 2 -1464 c3 -1447 3 -1464 23 -1486 48 -53 -72
-50 1977 -50 1870 0 1904 0 1935 20 68 41 63 -120 63 1975 0 2086 4 1944 -62
1985 -33 20 -46 20 -1485 20 l-1453 0 -2 1464 c-3 1448 -3 1464 -23 1486 -47
53 57 50 -1982 50 -1865 0 -1899 0 -1930 -20z"/>
</g>
</svg>
